<svg width="161" height="27" viewBox="0 0 161 27" fill="none" xmlns="http://www.w3.org/2000/svg">
<path d="M0.988 26V0.799998H13.3C16.468 0.799998 18.844 1.4 20.428 2.6C22.036 3.8 22.84 5.384 22.84 7.352C22.84 8.672 22.516 9.824 21.868 10.808C21.22 11.768 20.332 12.512 19.204 13.04C18.076 13.568 16.78 13.832 15.316 13.832L16 12.356C17.584 12.356 18.988 12.62 20.212 13.148C21.436 13.652 22.384 14.408 23.056 15.416C23.752 16.424 24.1 17.66 24.1 19.124C24.1 21.284 23.248 22.976 21.544 24.2C19.84 25.4 17.332 26 14.02 26H0.988ZM6.784 21.608H13.588C15.1 21.608 16.24 21.368 17.008 20.888C17.8 20.384 18.196 19.592 18.196 18.512C18.196 17.456 17.8 16.676 17.008 16.172C16.24 15.644 15.1 15.38 13.588 15.38H6.352V11.132H12.58C13.996 11.132 15.076 10.892 15.82 10.412C16.588 9.908 16.972 9.152 16.972 8.144C16.972 7.16 16.588 6.428 15.82 5.948C15.076 5.444 13.996 5.192 12.58 5.192H6.784V21.608ZM37.3353 26.288C35.2713 26.288 33.4353 25.856 31.8273 24.992C30.2433 24.128 28.9833 22.952 28.0473 21.464C27.1353 19.952 26.6793 18.236 26.6793 16.316C26.6793 14.372 27.1353 12.656 28.0473 11.168C28.9833 9.656 30.2433 8.48 31.8273 7.64C33.4353 6.776 35.2713 6.344 37.3353 6.344C39.3753 6.344 41.1993 6.776 42.8073 7.64C44.4153 8.48 45.6753 9.644 46.5873 11.132C47.4993 12.62 47.9553 14.348 47.9553 16.316C47.9553 18.236 47.4993 19.952 46.5873 21.464C45.6753 22.952 44.4153 24.128 42.8073 24.992C41.1993 25.856 39.3753 26.288 37.3353 26.288ZM37.3353 21.68C38.2713 21.68 39.1113 21.464 39.8553 21.032C40.5993 20.6 41.1873 19.988 41.6193 19.196C42.0513 18.38 42.2673 17.42 42.2673 16.316C42.2673 15.188 42.0513 14.228 41.6193 13.436C41.1873 12.644 40.5993 12.032 39.8553 11.6C39.1113 11.168 38.2713 10.952 37.3353 10.952C36.3993 10.952 35.5593 11.168 34.8153 11.6C34.0713 12.032 33.4713 12.644 33.0153 13.436C32.5833 14.228 32.3673 15.188 32.3673 16.316C32.3673 17.42 32.5833 18.38 33.0153 19.196C33.4713 19.988 34.0713 20.6 34.8153 21.032C35.5593 21.464 36.3993 21.68 37.3353 21.68ZM59.6292 26.288C57.3492 26.288 55.5732 25.712 54.3012 24.56C53.0292 23.384 52.3932 21.644 52.3932 19.34V2.348H58.0092V19.268C58.0092 20.084 58.2252 20.72 58.6572 21.176C59.0892 21.608 59.6772 21.824 60.4212 21.824C61.3092 21.824 62.0652 21.584 62.6892 21.104L64.2012 25.064C63.6252 25.472 62.9292 25.784 62.1132 26C61.3212 26.192 60.4932 26.288 59.6292 26.288ZM49.4052 11.384V7.064H62.8332V11.384H49.4052ZM73.1497 12.14H85.2457V16.82H73.1497V12.14ZM73.5817 26H67.7497V0.799998H86.7937V5.48H73.5817V26ZM101.663 26V22.22L101.303 21.392V14.624C101.303 13.424 100.931 12.488 100.187 11.816C99.4674 11.144 98.3514 10.808 96.8394 10.808C95.8074 10.808 94.7874 10.976 93.7794 11.312C92.7954 11.624 91.9554 12.056 91.2594 12.608L89.2434 8.684C90.2994 7.94 91.5714 7.364 93.0594 6.956C94.5474 6.548 96.0594 6.344 97.5954 6.344C100.547 6.344 102.839 7.04 104.471 8.432C106.103 9.824 106.919 11.996 106.919 14.948V26H101.663ZM95.7594 26.288C94.2474 26.288 92.9514 26.036 91.8714 25.532C90.7914 25.004 89.9634 24.296 89.3874 23.408C88.8114 22.52 88.5234 21.524 88.5234 20.42C88.5234 19.268 88.7994 18.26 89.3514 17.396C89.9274 16.532 90.8274 15.86 92.0514 15.38C93.2754 14.876 94.8714 14.624 96.8394 14.624H101.987V17.9H97.4514C96.1314 17.9 95.2194 18.116 94.7154 18.548C94.2354 18.98 93.9954 19.52 93.9954 20.168C93.9954 20.888 94.2714 21.464 94.8234 21.896C95.3994 22.304 96.1794 22.508 97.1634 22.508C98.0994 22.508 98.9394 22.292 99.6834 21.86C100.427 21.404 100.967 20.744 101.303 19.88L102.167 22.472C101.759 23.72 101.015 24.668 99.9354 25.316C98.8554 25.964 97.4634 26.288 95.7594 26.288ZM112.002 26V6.632H117.366V12.104L116.61 10.52C117.186 9.152 118.11 8.12 119.382 7.424C120.654 6.704 122.202 6.344 124.026 6.344V11.528C123.786 11.504 123.57 11.492 123.378 11.492C123.186 11.468 122.982 11.456 122.766 11.456C121.23 11.456 119.982 11.9 119.022 12.788C118.086 13.652 117.618 15.008 117.618 16.856V26H112.002ZM152.205 6.344C153.741 6.344 155.097 6.656 156.273 7.28C157.473 7.88 158.409 8.816 159.081 10.088C159.777 11.336 160.125 12.944 160.125 14.912V26H154.509V15.776C154.509 14.216 154.185 13.064 153.537 12.32C152.889 11.576 151.977 11.204 150.801 11.204C149.985 11.204 149.253 11.396 148.605 11.78C147.957 12.14 147.453 12.692 147.093 13.436C146.733 14.18 146.553 15.128 146.553 16.28V26H140.937V15.776C140.937 14.216 140.613 13.064 139.965 12.32C139.341 11.576 138.441 11.204 137.265 11.204C136.449 11.204 135.717 11.396 135.069 11.78C134.421 12.14 133.917 12.692 133.557 13.436C133.197 14.18 133.017 15.128 133.017 16.28V26H127.401V6.632H132.765V11.924L131.757 10.376C132.429 9.056 133.377 8.06 134.601 7.388C135.849 6.692 137.265 6.344 138.849 6.344C140.625 6.344 142.173 6.8 143.493 7.712C144.837 8.6 145.725 9.968 146.157 11.816L144.177 11.276C144.825 9.764 145.857 8.564 147.273 7.676C148.713 6.788 150.357 6.344 152.205 6.344Z" fill="#2156F2"/>
</svg>
